<svg xmlns="http://www.w3.org/2000/svg" viewBox="0 0 131.95 158"><defs><style>.cls-1{fill:#fff;}</style></defs><title>Recurso 7</title><g id="Capa_2" data-name="Capa 2"><g id="Capa_1-2" data-name="Capa 1"><path class="cls-1" d="M127,7.34A7.93,7.93,0,0,0,119.15,0H102.62a7.93,7.93,0,0,0-7.88,7.34L89.83,76.11A2.73,2.73,0,0,0,92.05,79a2.69,2.69,0,0,0,.4,0h10.34v47.16L97.5,154.9A2.62,2.62,0,0,0,99.64,158a2.59,2.59,0,0,0,.48,0h21.3a2.61,2.61,0,0,0,2.66-3.1l-5.29-28.74V79h9.79a3.72,3.72,0,0,0,2.24-.69A2.3,2.3,0,0,0,132,76.18ZM103.62,153,108,129h6.21l4.37,24Zm10.17-29h-5V79h5ZM95.37,74l4.75-66.53A2.66,2.66,0,0,1,102.77,5h16.65a2.67,2.67,0,0,1,2.65,2.47L126.82,74Z"/><path class="cls-1" d="M61.49,158a13.25,13.25,0,0,0,12.38-8.62c4-10.76,10.7-30.83,10.7-44.38,0-14.86-7.11-22.73-13.07-26.72a33.36,33.36,0,0,0-10.71-4.63v-19A2.65,2.65,0,0,0,58.14,52H26.43a2.64,2.64,0,0,0-2.64,2.64v19a33.32,33.32,0,0,0-10.72,4.63C7.11,82.27,0,90.14,0,105c0,13.55,6.71,33.62,10.7,44.38A13.25,13.25,0,0,0,23.08,158ZM55.79,58v5H51a2.61,2.61,0,0,0-2.66,2.28A2.49,2.49,0,0,0,50.79,68h5v5h-26V68h9.82a2.62,2.62,0,0,0,2.67-2.28A2.5,2.5,0,0,0,39.79,63h-10V58ZM26.63,79H58c1.88.25,19.44,3.17,21.19,23.16l-12,7.62a18.51,18.51,0,0,1-18.72.68L34.74,103a23.82,23.82,0,0,0-21.93-.33l-7.49,3.74h0C4.74,82.56,24.66,79.27,26.63,79ZM5.79,112.3l9.39-4.69a18.5,18.5,0,0,1,17,.25L46,115.29a23.82,23.82,0,0,0,24.07-.88l9.16-5.83c-.65,9.57-4.18,21.85-7.41,31.42h-59C10,131.63,6.94,121.19,5.79,112.3Zm9.67,35.5c-.32-.87-.67-1.81-1-2.8H70.23c-.36,1-.7,1.93-1,2.8a8,8,0,0,1-7.49,5.2H23a8,8,0,0,1-7.5-5.2Z"/></g></g></svg>