<svg xmlns="http://www.w3.org/2000/svg" viewBox="0 0 79.46 158.69"><defs><style>.cls-1{fill:#fff;}</style></defs><title>Recurso 5</title><g id="Capa_2" data-name="Capa 2"><g id="Capa_1-2" data-name="Capa 1"><path class="cls-1" d="M47.36,68H31.65A2.65,2.65,0,0,0,29,70.68v31.7A2.64,2.64,0,0,0,31.65,105H47.36A2.65,2.65,0,0,0,50,102.38V70.68A2.65,2.65,0,0,0,47.36,68ZM45,73V84H34V73ZM34,99V88H45V99Z"/><path class="cls-1" d="M75.34,4.18C74,1.48,68.23,0,68.23,0H60.65A2.65,2.65,0,0,0,58,2.68V11H53V3.12A2.63,2.63,0,0,0,51,.48,2.55,2.55,0,0,0,48,3.09V11H42V3.12A2.63,2.63,0,0,0,40,.48,2.55,2.55,0,0,0,37,3.09V11H32V3.12A2.63,2.63,0,0,0,30,.48,2.55,2.55,0,0,0,27,3.09V11H21V2.44A2.12,2.12,0,0,0,18.54,0H11.22A7.3,7.3,0,0,0,4.11,4.18L0,11.86v0c0,.43,0,.92,0,1.4.17,2.14,7.93,100.67,7.93,111,0,20,13.37,34.43,31.78,34.43S71.5,144.21,71.5,124.26c0-10.31,7.77-108.84,8-111a3.53,3.53,0,0,0,0-.46,2.68,2.68,0,0,0-.29-1ZM64,5h4.67A2.63,2.63,0,0,1,71,6.5l2.79,5.56L64,18.62ZM58,16v5H21V16ZM9,6.5A2.63,2.63,0,0,1,11.33,5H16V18.62L6.18,12.07ZM66.21,124.26c0,16.89-11.14,29.14-26.49,29.14s-26.48-12.25-26.48-29.14c0-9.26-5.86-84.71-7.53-106l11.36,7.57a1.21,1.21,0,0,0,1.17.2h0a2.29,2.29,0,0,1,.25,1H60.91A4.13,4.13,0,0,1,62.4,25.8l11.33-7.55C72.07,39.55,66.21,115,66.21,124.26Z"/></g></g></svg>