<svg xmlns="http://www.w3.org/2000/svg" viewBox="0 0 128.61 136.33"><defs><style>.cls-1{fill:#fff;}</style></defs><title>Recurso 6</title><g id="Capa_2" data-name="Capa 2"><g id="Capa_1-2" data-name="Capa 1"><path class="cls-1" d="M128.07,21.76a44.15,44.15,0,0,0-76.14,0A4,4,0,0,0,52.1,26L73,56.56v71.5a8.27,8.27,0,0,0,8.27,8.27H98.73a8.27,8.27,0,0,0,8.27-8.27V56.56L127.91,26a4,4,0,0,0,.16-4.24ZM98.72,128.33H81.28a.28.28,0,0,1-.28-.28V59.33H99v68.72A.28.28,0,0,1,98.72,128.33Zm1.68-77h-3l2.46-7.39A4.13,4.13,0,0,0,98.05,39a4,4,0,0,0-5.74,2.23l-2.62,7.88-2.58-7.74a4.09,4.09,0,0,0-4.29-2.85,4,4,0,0,0-3.34,5.24L82,51.33H79L60.23,23.66a35.52,35.52,0,0,1,58.92,0Z"/><path class="cls-1" d="M42.05,90.33h0v-43a4,4,0,0,0-4-4h0V8.82c0-4-2.8-7-6.51-7a7.47,7.47,0,0,0-2.82.57L15.44,7.79A11.16,11.16,0,0,0,9,17.35v26H9a4,4,0,0,0-4,4v43H1a1,1,0,0,0-1,1v42.91a2.08,2.08,0,0,0,2.09,2.08H43.91A2.08,2.08,0,0,0,46,134.25V84.68a.53.53,0,0,0-1-.24ZM18.44,15.21,30,10.44V43.33H17v-26A2.54,2.54,0,0,1,18.44,15.21ZM12,51.33H34v39H12Zm26.72,78H8.28a.28.28,0,0,1-.28-.28V98.33H39v30.72A.28.28,0,0,1,38.72,129.33Z"/></g></g></svg>