<svg xmlns="http://www.w3.org/2000/svg" viewBox="0 0 158.34 162.86"><defs><style>.cls-1{fill:#fff;}</style></defs><title>Recurso 4</title><g id="Capa_2" data-name="Capa 2"><g id="Capa_1-2" data-name="Capa 1"><path class="cls-1" d="M1.19,91.83l7.13,4.8L11.74,114a13.49,13.49,0,0,0,13.15,10.91h4.65a37.38,37.38,0,0,1,6.5.64c4.43.83,7.85,2.35,9.88,4.39a7.85,7.85,0,0,1,2.36,5.83c0,13.57,0,24.42,0,24.42A2.7,2.7,0,0,0,51,162.86H118a2.69,2.69,0,0,0,2.69-2.69V140.48l10.87,5.32a13.53,13.53,0,1,0,5.91-13.28l-16.78-6.79V124l16.78-6.79a13.5,13.5,0,1,0-3.85-18.79,13.75,13.75,0,0,0-2.06,5.51l-10.87,5.32V51.64c.08-1.67.71-21.79-13.11-36.57C98.27,5.07,84.62,0,67.06,0,11.37,0,10.73,26,10.73,27.14V69.85L.35,88.22a2.74,2.74,0,0,0,.84,3.61Zm114.54,65h-46V141.57l36.55-8.66,9.45,4.55Zm-20.64-35-10-4.81,13.33,3.17Zm-6.23,3-19.13,9.25V115.64ZM118,130.4l15.66,6.27a13.42,13.42,0,0,0-1.44,3.21l-17.82-8.62Zm27.11,5.25a8.07,8.07,0,1,1-8.07,8.07A8.08,8.08,0,0,1,145.12,135.65Zm-29.39-13.44v3.25L85.34,132.7l47.09-22.79a13.71,13.71,0,0,0,1.45,3.22l-16.46,6.58A2.7,2.7,0,0,0,115.73,122.21ZM145.12,98a8.07,8.07,0,1,1-8.07,8.07A8.07,8.07,0,0,1,145.12,98ZM21.91,17.35C32.58,8.17,52.33,6.24,67,6.24c16.14,0,28.57,4.47,36.93,13.29,12.64,13.32,11.79,32.35,11.78,32.54V112.3l-9.45,4.57-36.55-8.7V94.76c3.94-2.05,8.11-8.35,8.11-18.2,0-5.89-.75-10.27-2.31-13.38-2.29-4.59-5.89-5.55-8.51-5.55a11.46,11.46,0,0,0-8.63,4.18L15.8,26.73c.39-1.84,1.7-5.57,6.11-9.38ZM15.73,70V32.32L56.58,66.56a2.77,2.77,0,0,0,2.89.5,2.67,2.67,0,0,0,1.31-1.28s2-3.92,5.62-3.92,5.33,4.56,5.33,13.57c0,9.28-4.25,13.34-5.38,13.57a2.69,2.69,0,0,0-2.62,2.71v14.14l-1.89-.46a2.71,2.71,0,0,0-1.92,5l3.81,1.88v23.93L60,138.08a2.77,2.77,0,0,0-1.59,2.74,2.68,2.68,0,0,0,3.28,2.39l2-.49v14.14H53.08c0-4.05,0-12.22,0-21.72a13.26,13.26,0,0,0-3.94-9.7c-6.65-6.67-19.54-6.59-20.06-6.58H24.47a8.06,8.06,0,0,1-7.84-6.55L13,93.88a2.69,2.69,0,0,0-1.13-1.71L6,88.15l9.44-16.82A2.72,2.72,0,0,0,15.73,70Z"/></g></g></svg>