<svg xmlns="http://www.w3.org/2000/svg" viewBox="0 0 129.8 132"><defs><style>.cls-1{fill:#fff;}</style></defs><title>Recurso 9</title><g id="Capa_2" data-name="Capa 2"><g id="Capa_1-2" data-name="Capa 1"><path class="cls-1" d="M10,52h7.11L21,128a2,2,0,1,0,4,0L28.89,52H33c5.52,0,10-4.85,10-10.83V23.83a2.09,2.09,0,0,0-2-2.16V2.17A2.17,2.17,0,0,0,38.83,0H4.17A2.17,2.17,0,0,0,2,2.17v19.5a2.09,2.09,0,0,0-2,2.16V41.17C0,47.15,4.48,52,10,52ZM24,22V5h4V22Zm-5,0H15V5h4V22Zm20,4v4H4V26ZM32.44,48H25.86a2.18,2.18,0,0,0-2.17,2L21.5,89.11,19.31,50.05a2.17,2.17,0,0,0-2.17-2H10.56A6.53,6.53,0,0,1,4,41.5V35H39v6.5A6.53,6.53,0,0,1,32.44,48ZM36,22H32V5h4ZM6,5h4V22H6Z"/><path class="cls-1" d="M49.25,132h60.58a2.17,2.17,0,0,0,2.17-2.17V123.1a11,11,0,0,0,9-10.64V82.86l8.37-12.39a2.26,2.26,0,0,0,.25-2.17,2.21,2.21,0,0,0-2-1.3h-12l1-17,6.55-25.87a2.17,2.17,0,0,0-1.6-2.64,2.33,2.33,0,0,0-.53-.06V6.17A2.17,2.17,0,0,0,118.83,4H101.17A2.17,2.17,0,0,0,99,6.17V22a2.14,2.14,0,0,0-2.14,2.14,2.24,2.24,0,0,0,.06.52l6.38,25.52L104.23,67H80.79l.8-15h6.82a2.12,2.12,0,0,0,2.14-1.71,2,2,0,0,0-2-2.29H81.93l.24-5h6.24a2.12,2.12,0,0,0,2.14-1.71,2,2,0,0,0-2-2.29H82.41l.21-4h5.86s2.17-1.13,2.17-2.33S88.48,30,88.48,30H82.87l.22-4h5.32a2.12,2.12,0,0,0,2.14-1.71,2,2,0,0,0-2-2.29H83.34l.21-4h4.93s2.17-1.5,2.17-2.7S88.48,13,88.48,13H83.8L84,9h4.39a2.12,2.12,0,0,0,2.14-1.71,2,2,0,0,0-2-2.29H71.34L61,.88a2.13,2.13,0,0,0-2.78,1.19l0,.12-10.68,32a2.17,2.17,0,0,0,1.26,2.7l10.3,4.12a2,2,0,0,0,1.13.3,5.87,5.87,0,0,1,3.42,1.85c1.82,1.75,4.19,5.5,5.17,13.38.23,1.83.53,5.33.88,10.42H31.23a2.2,2.2,0,0,0-1.63.67,2.13,2.13,0,0,0-.22,2.7L38,82.82V112.5a11,11,0,0,0,9,10.62v6.71A2.17,2.17,0,0,0,49.17,132ZM52,128v-4h56v4ZM117,22h-4V9h4ZM104,9h4V22h-4Zm4,40.21L102.17,26h16l-5.8,23.21-.07.41-1,17.38H109l-1-17.38ZM61.56,28.4,54.7,25.83l1.44-4.33L63,24.08ZM64.38,20l-6.87-2.58L59,13.06l6.87,2.58ZM61.59,5.15l6.82,2.72-1.22,3.64L60.32,8.94ZM53.32,30l6.87,2.57-1.26,3.8-6.82-2.73Zm20,26.85c-1.64-13.1-7-17.35-10.28-18.73L72.69,9h7L76.57,68H74.22c-.38-5.45-.69-9.22-.94-11.2ZM123.51,72l-5.79,9H41.88l-5.79-9ZM43,113.44V85h74v28.44a6.55,6.55,0,0,1-6.53,6.56H49.53A6.55,6.55,0,0,1,43,113.44Z"/></g></g></svg>