<svg xmlns="http://www.w3.org/2000/svg" viewBox="0 0 155.1 134.4"><defs><style>.cls-1{fill:#fff;}</style></defs><title>Recurso 8</title><g id="Capa_2" data-name="Capa 2"><g id="Capa_1-2" data-name="Capa 1"><path class="cls-1" d="M154.67,29.12a2.62,2.62,0,0,0-.33-3.28l-9.28-9.28A56.51,56.51,0,0,0,95.1.89L8.69,16.4a10.55,10.55,0,0,0-4,19.16l.36.24a10.61,10.61,0,0,0,8.07,1.53L94.49,19.74A67.58,67.58,0,0,1,133.88,23l17.65,7.06A2.59,2.59,0,0,0,154.67,29.12ZM135.84,18.21A72.82,72.82,0,0,0,93.4,14.65L12,32.24a5.33,5.33,0,0,1-4.09-.78l-.35-.24a5.34,5.34,0,0,1,2-9.7L96,6a51.29,51.29,0,0,1,45.35,14.22l.32.32Z"/><path class="cls-1" d="M123.39,134.4h15.8a2.6,2.6,0,0,0,2.6-2.6V36.05a2.59,2.59,0,0,0-1.45-2.32L124.59,26a2.68,2.68,0,0,0-2.56.11,2.61,2.61,0,0,0-1.24,2.21V59.54l-8.13,9.12A48.81,48.81,0,0,1,97.28,80.2l-.44.21a51,51,0,0,1-22,5H66.92a50,50,0,0,1-39.42-19L26.32,65a18.52,18.52,0,0,0-14.53-7v5a13.21,13.21,0,0,1,10.38,5l1.18,1.49c.32.42.67.8,1,1.2l-.83,1.6a17,17,0,0,1-9.95,8.3l1.63,4.74a22.07,22.07,0,0,0,12.85-10.6,52.67,52.67,0,0,0,7,5.82,34.36,34.36,0,0,1-9.28,15.42l-.22.2,3.66,3.54.23-.21A39.32,39.32,0,0,0,39.58,83.31,56.12,56.12,0,0,0,48,87.11a38.71,38.71,0,0,1-4.27,16.1l-.54,1.05,4.64,2.23.55-1a43.78,43.78,0,0,0,4.77-16.76A56.22,56.22,0,0,0,66,90.37l-2.23,17.19,5.14.62L71.18,90.4h3.1c1.6,0,3.2-.09,4.79-.23l2.36,18.67,5.21-.64L84.28,89.48a56.22,56.22,0,0,0,8.54-2.25,48.75,48.75,0,0,0,7.42,17.55l4.36-2.87a44,44,0,0,1-6.71-16l-.15-.71c.39-.18.79-.35,1.18-.54l.45-.22a55.91,55.91,0,0,0,6.46-3.82,26.69,26.69,0,0,0,10.88,14.52l2.91-4.31a21.55,21.55,0,0,1-9.08-12.71l-.22-.88a55.62,55.62,0,0,0,6.24-6l4.23-4.88V131.8A2.6,2.6,0,0,0,123.39,134.4Zm3.4-5v-73h10v73Zm0-83h10v5h-10Zm10-9.59V40.4h-10V31.6Z"/></g></g></svg>